<svg width="83" height="36" viewBox="0 0 83 36" fill="none" xmlns="http://www.w3.org/2000/svg">
<path d="M0 20.6059H2.47975V14.6368H7.8112V20.6059H11.0703V25.034H7.8112V29.0901C7.8112 29.6924 7.89976 30.1824 8.07688 30.5603C8.25401 30.9263 8.57874 31.1093 9.05107 31.1093C9.36989 31.1093 9.64149 31.0385 9.86584 30.8968C10.0902 30.7551 10.226 30.6606 10.2732 30.6134L12.1153 34.4393C12.0327 34.5101 11.7729 34.64 11.336 34.829C10.9109 35.0179 10.3677 35.1891 9.70643 35.3426C9.04517 35.4961 8.30715 35.5729 7.49237 35.5729C6.03995 35.5729 4.84141 35.1655 3.89674 34.3507C2.95208 33.5241 2.47975 32.2548 2.47975 30.5425V25.034H0V20.6059Z" fill="white"/>
<path d="M19.0332 35.1478H13.6486V20.6059H19.0332V22.8553H18.9446C19.0391 22.5837 19.2693 22.2413 19.6354 21.828C20.0014 21.4029 20.5151 21.0251 21.1764 20.6944C21.8376 20.352 22.6465 20.1808 23.603 20.1808C24.276 20.1808 24.896 20.287 25.4628 20.4996C26.0296 20.7003 26.4429 20.8952 26.7026 21.0841L24.6126 25.4591C24.4473 25.2583 24.1521 25.0517 23.727 24.8391C23.3137 24.6148 22.7941 24.5026 22.1683 24.5026C21.448 24.5026 20.8516 24.6856 20.3793 25.0517C19.9188 25.4177 19.5763 25.8606 19.352 26.3801C19.1394 26.8997 19.0332 27.3897 19.0332 27.8503V35.1478Z" fill="white"/>
<path d="M39.1185 27.3366L45.3002 35.1478H39.3311L35.8949 30.6665L32.4586 35.1478H26.8969L33.0609 27.7617L27.5169 20.6059H33.5391L36.2314 24.3432L39.0477 20.6059H44.5031L39.1185 27.3366Z" fill="white"/>
<path d="M46.113 20.6059H51.8696L55.3766 30.2592L58.9014 20.6059H64.6225L58.5295 35.1478H52.2238L46.113 20.6059Z" fill="white"/>
<path d="M72.1813 35.1478H66.779V10.7754H72.1813V35.1478Z" fill="white"/>
<path d="M79.2663 35.5729C78.3925 35.5729 77.6368 35.26 76.9991 34.6341C76.3733 33.9965 76.0604 33.2407 76.0604 32.3669C76.0604 31.4695 76.3733 30.7079 76.9991 30.082C77.6368 29.4444 78.3925 29.1256 79.2663 29.1256C80.1638 29.1256 80.9254 29.4444 81.5512 30.082C82.1771 30.7079 82.49 31.4695 82.49 32.3669C82.49 33.2407 82.1771 33.9965 81.5512 34.6341C80.9254 35.26 80.1638 35.5729 79.2663 35.5729Z" fill="white"/>
<path d="M13.4064 5.15399C14.0082 5.15399 14.5388 5.28017 14.9982 5.53253C15.4576 5.77842 15.8168 6.1602 16.0756 6.67786C16.3409 7.19553 16.4735 7.86202 16.4735 8.67734V13.3557H13.5714V9.12382C13.5714 8.56733 13.4873 8.11761 13.319 7.77466C13.1508 7.43171 12.8175 7.26023 12.3193 7.26023C12.0216 7.26023 11.7596 7.33788 11.5331 7.49318C11.3066 7.64848 11.1319 7.86525 11.009 8.1435C10.886 8.41527 10.8245 8.74205 10.8245 9.12382V13.3557H8.11651V9.12382C8.11651 8.56733 8.02268 8.11761 7.83503 7.77466C7.65385 7.43171 7.33031 7.26023 6.86441 7.26023C6.56675 7.26023 6.30468 7.33788 6.07821 7.49318C5.85173 7.64201 5.67702 7.85555 5.55407 8.13379C5.4376 8.40556 5.37936 8.73557 5.37936 9.12382V13.3557H2.44809V5.38694H5.37936V6.52256C5.45701 6.32197 5.62525 6.11814 5.88408 5.91107C6.14939 5.69754 6.47616 5.51959 6.86441 5.37723C7.25266 5.2284 7.66355 5.15399 8.09709 5.15399C8.56946 5.15399 8.96418 5.22517 9.28125 5.36753C9.59832 5.50341 9.85715 5.68783 10.0577 5.92078C10.2648 6.15373 10.4298 6.40609 10.5528 6.67786C10.6434 6.44491 10.8213 6.21196 11.0866 5.97902C11.3584 5.7396 11.6949 5.54224 12.096 5.38694C12.5037 5.23164 12.9405 5.15399 13.4064 5.15399Z" fill="white"/>
<path d="M24.3656 13.3557V12.0648C24.3073 12.1942 24.1585 12.3819 23.9191 12.6278C23.6862 12.8736 23.3756 13.0969 22.9873 13.2975C22.5991 13.4916 22.1461 13.5887 21.6284 13.5887C20.8519 13.5887 20.1725 13.401 19.5901 13.0257C19.0078 12.6439 18.5548 12.136 18.2313 11.5018C17.9077 10.8612 17.746 10.1527 17.746 9.37618C17.746 8.59969 17.9077 7.89437 18.2313 7.26023C18.5548 6.61962 19.0078 6.10843 19.5901 5.72666C20.1725 5.34488 20.8519 5.15399 21.6284 5.15399C22.1267 5.15399 22.5635 5.23487 22.9388 5.39664C23.3141 5.55194 23.6182 5.7396 23.8512 5.9596C24.0841 6.17314 24.2459 6.3705 24.3365 6.55168V5.38694H27.2677V13.3557H24.3656ZM20.6384 9.37618C20.6384 9.73855 20.7225 10.0653 20.8908 10.3565C21.059 10.6412 21.2822 10.8645 21.5605 11.0262C21.8452 11.188 22.159 11.2689 22.502 11.2689C22.8579 11.2689 23.1717 11.188 23.4435 11.0262C23.7153 10.8645 23.9288 10.6412 24.0841 10.3565C24.2459 10.0653 24.3268 9.73855 24.3268 9.37618C24.3268 9.01382 24.2459 8.69028 24.0841 8.40556C23.9288 8.11438 23.7153 7.8879 23.4435 7.72613C23.1717 7.55789 22.8579 7.47377 22.502 7.47377C22.159 7.47377 21.8452 7.55789 21.5605 7.72613C21.2822 7.8879 21.059 8.11438 20.8908 8.40556C20.7225 8.69028 20.6384 9.01382 20.6384 9.37618Z" fill="white"/>
<path d="M32.0908 13.3557H29.1304V0H32.0908V13.3557Z" fill="white"/>
<path d="M40.1761 13.3557V12.0648C40.1178 12.1942 39.969 12.3819 39.7296 12.6278C39.4966 12.8736 39.186 13.0969 38.7978 13.2975C38.4095 13.4916 37.9566 13.5887 37.4389 13.5887C36.6624 13.5887 35.983 13.401 35.4006 13.0257C34.8182 12.6439 34.3653 12.136 34.0417 11.5018C33.7182 10.8612 33.5564 10.1527 33.5564 9.37618C33.5564 8.59969 33.7182 7.89437 34.0417 7.26023C34.3653 6.61962 34.8182 6.10843 35.4006 5.72666C35.983 5.34488 36.6624 5.15399 37.4389 5.15399C37.9372 5.15399 38.374 5.23487 38.7493 5.39664C39.1246 5.55194 39.4287 5.7396 39.6616 5.9596C39.8946 6.17314 40.0564 6.3705 40.1469 6.55168V5.38694H43.0782V13.3557H40.1761ZM36.4489 9.37618C36.4489 9.73855 36.533 10.0653 36.7012 10.3565C36.8695 10.6412 37.0927 10.8645 37.371 11.0262C37.6557 11.188 37.9695 11.2689 38.3125 11.2689C38.6684 11.2689 38.9822 11.188 39.254 11.0262C39.5257 10.8645 39.7393 10.6412 39.8946 10.3565C40.0564 10.0653 40.1372 9.73855 40.1372 9.37618C40.1372 9.01382 40.0564 8.69028 39.8946 8.40556C39.7393 8.11438 39.5257 7.8879 39.254 7.72613C38.9822 7.55789 38.6684 7.47377 38.3125 7.47377C37.9695 7.47377 37.6557 7.55789 37.371 7.72613C37.0927 7.8879 36.8695 8.11438 36.7012 8.40556C36.533 8.69028 36.4489 9.01382 36.4489 9.37618Z" fill="white"/>
<path d="M50.4346 5.15399C50.9911 5.15399 51.5346 5.26723 52.0652 5.49371C52.5959 5.72018 53.0326 6.07931 53.3756 6.57109C53.7185 7.0564 53.89 7.69701 53.89 8.49292V13.3557H50.9296V8.97823C50.9296 8.4088 50.7937 7.98173 50.522 7.69701C50.2502 7.40583 49.8943 7.26023 49.4543 7.26023C49.1631 7.26023 48.8881 7.33788 48.6293 7.49318C48.3769 7.64201 48.1698 7.85555 48.0081 8.13379C47.8528 8.40556 47.7751 8.7194 47.7751 9.07529V13.3557H44.8244V5.38694H47.7751V6.56139C47.8528 6.34785 48.0145 6.13432 48.2604 5.92078C48.5128 5.70077 48.8266 5.51959 49.2019 5.37723C49.5837 5.2284 49.9946 5.15399 50.4346 5.15399Z" fill="white"/>
<path d="M59.788 17.6167C59.2315 17.6167 58.6783 17.5682 58.1283 17.4711C57.5847 17.3741 57.0768 17.2091 56.6044 16.9761C56.132 16.7432 55.7341 16.4229 55.4105 16.0152L57.1382 14.2196C57.2871 14.3943 57.4683 14.5658 57.6818 14.734C57.9018 14.9022 58.1703 15.0414 58.4874 15.1514C58.8109 15.2614 59.2024 15.3164 59.6619 15.3164C60.0889 15.3164 60.461 15.242 60.7781 15.0931C61.0951 14.9443 61.341 14.7275 61.5157 14.4428C61.6969 14.1581 61.7875 13.8119 61.7875 13.4043V13.2101H64.6897V13.579C64.6897 14.459 64.4697 15.1999 64.0296 15.8017C63.5961 16.4035 63.0105 16.8564 62.2728 17.1606C61.5351 17.4647 60.7069 17.6167 59.788 17.6167ZM61.7875 13.3557V12.0648C61.7293 12.1942 61.5804 12.3819 61.341 12.6278C61.1081 12.8736 60.7975 13.0969 60.4092 13.2975C60.021 13.4916 59.568 13.5887 59.0504 13.5887C58.2739 13.5887 57.5944 13.401 57.0121 13.0257C56.4297 12.6439 55.9767 12.136 55.6532 11.5018C55.3297 10.8612 55.1679 10.1527 55.1679 9.37618C55.1679 8.59969 55.3297 7.89437 55.6532 7.26023C55.9767 6.61962 56.4297 6.10843 57.0121 5.72666C57.5944 5.34488 58.2739 5.15399 59.0504 5.15399C59.5486 5.15399 59.9854 5.23487 60.3607 5.39664C60.736 5.55194 61.0401 5.7396 61.2731 5.9596C61.506 6.17314 61.6678 6.3705 61.7584 6.55168V5.38694H64.6897V13.3557H61.7875ZM58.0603 9.37618C58.0603 9.73855 58.1445 10.0653 58.3127 10.3565C58.4809 10.6412 58.7042 10.8645 58.9824 11.0262C59.2671 11.188 59.581 11.2689 59.9239 11.2689C60.2798 11.2689 60.5937 11.188 60.8654 11.0262C61.1372 10.8645 61.3507 10.6412 61.506 10.3565C61.6678 10.0653 61.7487 9.73855 61.7487 9.37618C61.7487 9.01382 61.6678 8.69028 61.506 8.40556C61.3507 8.11438 61.1372 7.8879 60.8654 7.72613C60.5937 7.55789 60.2798 7.47377 59.9239 7.47377C59.581 7.47377 59.2671 7.55789 58.9824 7.72613C58.7042 7.8879 58.4809 8.11438 58.3127 8.40556C58.1445 8.69028 58.0603 9.01382 58.0603 9.37618Z" fill="white"/>
</svg>
